<?xml version="1.0" encoding="UTF-8"?>
<svg width="14px" height="14px" viewBox="0 0 14 14" version="1.1" xmlns="http://www.w3.org/2000/svg" xmlns:xlink="http://www.w3.org/1999/xlink">
    <!-- Generator: sketchtool 49.1 (51147) - http://www.bohemiancoding.com/sketch -->
    <title>62EF8FBB-3EF2-47BB-BA12-C2D5DC89B080</title>
    <desc>Created with sketchtool.</desc>
    <defs></defs>
    <g id="Prototyping-Area" stroke="none" stroke-width="1" fill="none" fill-rule="evenodd">
        <g id="Create-Event---Step-1" transform="translate(-214.000000, -1039.000000)" fill="#829399">
            <path d="M216.1875,1052.12587 L225.8125,1052.12587 L225.8125,1051.25 L216.1875,1051.25 L216.1875,1052.12587 Z M214,1048.62587 L228,1048.62587 L228,1047.75 L214,1047.75 L214,1048.62587 Z M214.875,1050.37587 L227.125,1050.37587 L227.125,1049.50087 L214.875,1049.50087 L214.875,1050.37587 Z M216.722125,1042.416 L215.484875,1041.17875 L214.86625,1041.79737 L216.1035,1043.03462 L216.722125,1042.416 Z M227.13375,1041.79737 L226.515125,1041.17875 L225.277875,1042.416 L225.8965,1043.03462 L227.13375,1041.79737 Z M216.61975,1046.875 C216.61975,1044.4565 218.580625,1042.49562 221,1042.49562 C223.419375,1042.49562 225.38025,1044.4565 225.38025,1046.875 L226.25,1046.875 C226.25,1043.97612 223.898875,1041.62587 221,1041.62587 C218.099375,1041.62587 215.75,1043.97612 215.75,1046.875 L216.61975,1046.875 Z M220.5625,1040.75088 L221.4375,1040.75088 L221.4375,1039 L220.5625,1039 L220.5625,1040.75088 Z" id="Fill-891"></path>
        </g>
    </g>
</svg>