<?xml version="1.0" encoding="UTF-8"?>
<svg width="15px" height="14px" viewBox="0 0 15 14" version="1.1" xmlns="http://www.w3.org/2000/svg" xmlns:xlink="http://www.w3.org/1999/xlink">
    <!-- Generator: sketchtool 49.1 (51147) - http://www.bohemiancoding.com/sketch -->
    <title>EC3C5591-FA67-4E8D-8886-6EFE1E3FE72F</title>
    <desc>Created with sketchtool.</desc>
    <defs></defs>
    <g id="Prototyping-Area" stroke="none" stroke-width="1" fill="none" fill-rule="evenodd">
        <g id="Create-Event---Step-1" transform="translate(-459.000000, -728.000000)" fill="#2886FF">
            <path d="M471.25,728.875 L471.25,728 L468.625,728 L468.625,728.875 L464.25,728.875 L464.25,728 L461.625,728 L461.625,728.875 L459,728.875 L459,742 L473.875,742 L473.875,728.875 L471.25,728.875 L471.25,728.875 Z M469.5,728.875 L470.375,728.875 L470.375,730.625 L469.5,730.625 L469.5,728.875 L469.5,728.875 Z M462.5,728.875 L463.375,728.875 L463.375,730.625 L462.5,730.625 L462.5,728.875 L462.5,728.875 Z M473,741.125 L459.875,741.125 L459.875,733.319125 L473,733.319125 L473,741.125 L473,741.125 Z M459.875,732.444125 L459.875,729.75 L461.625,729.75 L461.625,731.5 L464.25,731.5 L464.25,729.75 L468.625,729.75 L468.625,731.5 L471.25,731.5 L471.25,729.75 L473,729.75 L473,732.444125 L459.875,732.444125 L459.875,732.444125 Z" id="Shape"></path>
        </g>
    </g>
</svg>