<?xml version="1.0" encoding="UTF-8"?>
<svg width="14px" height="14px" viewBox="0 0 14 14" version="1.1" xmlns="http://www.w3.org/2000/svg" xmlns:xlink="http://www.w3.org/1999/xlink">
    <!-- Generator: sketchtool 49.1 (51147) - http://www.bohemiancoding.com/sketch -->
    <title>5EC8B3A4-020E-4AA7-860A-635A27E2DC06</title>
    <desc>Created with sketchtool.</desc>
    <defs></defs>
    <g id="Prototyping-Area" stroke="none" stroke-width="1" fill="none" fill-rule="evenodd">
        <g id="Card-details-v2---Add-a-card" transform="translate(-946.000000, -223.000000)" fill="#829399">
            <g id="Group-7">
                <g id="Group-5" transform="translate(450.000000, 194.000000)">
                    <g id="Group">
                        <path d="M503.7,36.00475 L509.865,29.83975 C510.057,29.64875 510.057,29.33575 509.865,29.14475 C509.673,28.95175 509.361,28.95175 509.169,29.14475 L503.005,35.30975 L496.84,29.14475 C496.648,28.95175 496.336,28.95175 496.144,29.14475 C495.952,29.33575 495.952,29.64875 496.144,29.83975 L502.309,36.00475 L496.144,42.16975 C495.952,42.36075 495.952,42.67275 496.144,42.86475 C496.336,43.05775 496.648,43.05775 496.84,42.86475 L503.005,36.69975 L509.169,42.86475 C509.361,43.05775 509.673,43.05775 509.865,42.86475 C510.057,42.67275 510.057,42.36075 509.865,42.16975 L503.7,36.00475 Z" id="Fill-332"></path>
                    </g>
                </g>
            </g>
        </g>
    </g>
</svg>