<?xml version="1.0" encoding="UTF-8"?>
<svg width="20px" height="11px" viewBox="0 0 20 11" version="1.1" xmlns="http://www.w3.org/2000/svg" xmlns:xlink="http://www.w3.org/1999/xlink">
    <!-- Generator: sketchtool 49.1 (51147) - http://www.bohemiancoding.com/sketch -->
    <title>FA33D82A-ED41-4221-80C6-51ED3DEB0F4B</title>
    <desc>Created with sketchtool.</desc>
    <defs></defs>
    <g id="Prototyping-Area" stroke="none" stroke-width="1" fill="none" fill-rule="evenodd">
        <g id="Create-Event---Step-1" transform="translate(-618.000000, -991.000000)" fill="#FFFFFF">
            <path d="M636.335371,1000.77886 L631.445938,998.332926 L631.445938,997.110568 L633.279475,997.110568 C633.616846,997.110568 633.890655,996.837982 633.890655,996.500611 C633.890655,996.16324 633.616846,995.889432 633.279475,995.889432 L631.445938,995.889432 L631.445938,995.074119 L636.335371,992.222358 L636.335371,1000.77886 Z M630.22358,997.875764 C630.22358,998.128792 629.949772,998.334148 629.612401,998.334148 L625.945327,998.334148 C625.607956,998.334148 625.334148,998.128792 625.334148,997.875764 L625.334148,995.125458 C625.334148,994.87243 625.607956,994.667074 625.945327,994.667074 L629.612401,994.667074 C629.949772,994.667074 630.22358,994.87243 630.22358,995.125458 L630.22358,997.875764 Z M619.222358,1000.77886 L619.222358,992.222358 L624.11179,995.074119 L624.11179,995.889432 L622.278253,995.889432 C621.940882,995.889432 621.667074,996.16324 621.667074,996.500611 C621.667074,996.837982 621.940882,997.110568 622.278253,997.110568 L624.11179,997.110568 L624.11179,998.332926 L619.222358,1000.77886 Z M635.724192,991 L631.10979,993.769863 C630.886098,993.571841 630.574397,993.444716 630.22358,993.444716 L625.334148,993.444716 C624.983331,993.444716 624.67163,993.571841 624.447939,993.769863 L619.833537,991 C618.820202,991 618,991.820202 618,992.833537 L618,1000.16769 C618,1001.1798 618.820202,1002 619.833537,1002 L624.447939,999.231359 C624.67163,999.429381 624.983331,999.556506 625.334148,999.556506 L630.22358,999.556506 C630.574397,999.556506 630.886098,999.429381 631.10979,999.231359 L635.724192,1002 C636.737526,1002 637.557729,1001.1798 637.557729,1000.16769 L637.557729,992.833537 C637.557729,991.820202 636.737526,991 635.724192,991 L635.724192,991 Z" id="Fill-913"></path>
        </g>
    </g>
</svg>