<?xml version="1.0" encoding="UTF-8"?>
<svg width="82px" height="100px" viewBox="0 0 82 100" version="1.1" xmlns="http://www.w3.org/2000/svg" xmlns:xlink="http://www.w3.org/1999/xlink">
    <!-- Generator: sketchtool 49.1 (51147) - http://www.bohemiancoding.com/sketch -->
    <title>61B9608C-B6CD-4EB7-9849-E3A51CDA9192</title>
    <desc>Created with sketchtool.</desc>
    <defs></defs>
    <g id="Onboarding" stroke="none" stroke-width="1" fill="none" fill-rule="evenodd">
        <g transform="translate(-679.000000, -80.000000)" fill="#FFFFFF" id="Designway-Logo-Copy-2">
            <path d="M733.436315,110.530599 C733.455658,116.296097 733.466393,122.667372 733.466393,129.366669 C733.466393,136.559725 733.454018,143.374623 733.431899,149.467559 L738.72467,151.674794 C738.688456,145.325329 738.667385,137.723478 738.667385,129.553183 C738.667385,121.763606 738.686538,114.490731 738.719707,108.327276 L733.436315,110.530599 Z M727.383151,113.054939 L686.750255,130 L727.386908,146.946628 C727.370121,141.517023 727.360879,135.583065 727.360879,129.366669 C727.360879,123.630863 727.368747,118.135512 727.383151,113.054939 Z M733.273459,87.7427106 C733.332667,91.7895879 733.382165,97.9312788 733.416198,105.415355 L738.752495,103.190023 C738.796708,97.2988891 738.855482,92.9027126 738.922363,90.7462864 L733.273459,87.7427106 Z M727.561081,87.259598 L692.019766,122.678415 L727.400446,107.924032 C727.435613,98.9871451 727.492079,91.7172765 727.561081,87.259598 Z M733.41024,154.582161 C733.372503,162.313261 733.31792,168.502961 733.25325,172.268035 L738.955839,169.235914 C738.878685,167.6753 738.810253,163.192608 738.759428,156.812868 L733.41024,154.582161 Z M727.405629,152.078129 L692.019766,137.321585 L727.582823,172.762069 C727.507368,168.682595 727.44487,161.339218 727.405629,152.078129 Z M744.536844,105.901366 C744.578648,112.543178 744.603301,120.715639 744.603301,129.553183 C744.603301,138.79021 744.576369,147.300668 744.531071,154.096226 L758.27768,159.828949 C759.178644,160.204677 759.875517,161.120296 760.04219,162.148466 C760.210551,163.176734 759.815013,164.114305 759.041558,164.525558 L730.371496,179.7697 C729.574468,180.193488 728.541494,179.97064 727.778222,179.209875 L680.842882,132.436152 C680.182499,131.778229 679.851502,130.847509 679.931128,130 C679.851502,129.152491 680.182499,128.221771 680.842882,127.563848 L727.778222,80.7901253 C728.541494,80.0293603 729.574468,79.8065124 730.371496,80.2302995 L759.041558,95.474442 C759.815013,95.8856951 760.210551,96.8232659 760.04219,97.8515345 C759.875517,98.8797039 759.178644,99.7953233 758.27768,100.171051 L744.536844,105.901366 Z M744.413011,93.6657154 C744.444673,95.5355368 744.473535,97.9468305 744.498679,100.79376 L751.963935,97.6806134 L744.413011,93.6657154 Z M744.490561,159.202854 C744.462999,162.130484 744.431344,164.552926 744.396699,166.342958 L751.963935,162.319387 L744.490561,159.202854 Z" transform="translate(720.000000, 130.000000) scale(-1, 1) translate(-720.000000, -130.000000) "></path>
        </g>
    </g>
</svg>