<?xml version="1.0" encoding="UTF-8"?>
<svg width="41px" height="50px" viewBox="0 0 41 50" version="1.1" xmlns="http://www.w3.org/2000/svg" xmlns:xlink="http://www.w3.org/1999/xlink">
    <!-- Generator: sketchtool 49.1 (51147) - http://www.bohemiancoding.com/sketch -->
    <title>09220672-CB04-442E-A2BC-C801511534C8</title>
    <desc>Created with sketchtool.</desc>
    <defs></defs>
    <g id="Prototyping-Area" stroke="none" stroke-width="1" fill="none" fill-rule="evenodd">
        <g id="Profile" transform="translate(-205.000000, -15.000000)" fill="#2F77EB">
            <g id="Header-v2">
                <path d="M231.718158,30.2652994 C231.727829,33.1480487 231.733196,36.3336859 231.733196,39.6833347 C231.733196,43.2798624 231.727009,46.6873114 231.71595,49.7337797 L234.362335,50.837397 C234.344228,47.6626645 234.333693,43.8617392 234.333693,39.7765914 C234.333693,35.8818028 234.343269,32.2453657 234.359854,29.1636379 L231.718158,30.2652994 Z M228.691575,31.5274695 L208.375128,40 L228.693454,48.473314 C228.685061,45.7585116 228.680439,42.7915326 228.680439,39.6833347 C228.680439,36.8154313 228.684374,34.0677558 228.691575,31.5274695 Z M231.636729,18.8713553 C231.666333,20.894794 231.691083,23.9656394 231.708099,27.7076774 L234.376247,26.5950114 C234.398354,23.6494445 234.427741,21.4513563 234.461182,20.3731432 L231.636729,18.8713553 Z M228.780541,18.629799 L211.009883,36.3392075 L228.700223,28.9620161 C228.717807,24.4935726 228.746039,20.8586383 228.780541,18.629799 Z M231.70512,52.2910803 C231.686252,56.1566304 231.65896,59.2514807 231.626625,61.1340174 L234.477919,59.6179571 C234.439342,58.83765 234.405127,56.5963039 234.379714,53.4064341 L231.70512,52.2910803 Z M228.702815,51.0390646 L211.009883,43.6607925 L228.791412,61.3810345 C228.753684,59.3412975 228.722435,55.6696089 228.702815,51.0390646 Z M237.268422,27.950683 C237.289324,31.271589 237.301651,35.3578193 237.301651,39.7765914 C237.301651,44.3951052 237.288185,48.650334 237.265535,52.0481131 L244.13884,54.9144746 C244.589322,55.1023384 244.937758,55.5601481 245.021095,56.0742328 C245.105276,56.588367 244.907506,57.0571524 244.520779,57.262779 L230.185748,64.8848502 C229.787234,65.0967438 229.270747,64.9853199 228.889111,64.6049374 L205.421441,41.2180759 C205.09125,40.8891145 204.925751,40.4237545 204.965564,40 C204.925751,39.5762455 205.09125,39.1108855 205.421441,38.7819241 L228.889111,15.3950626 C229.270747,15.0146801 229.787234,14.9032562 230.185748,15.1151498 L244.520779,22.737221 C244.907506,22.9428476 245.105276,23.411633 245.021095,23.9257672 C244.937758,24.4398519 244.589322,24.8976616 244.13884,25.0855254 L237.268422,27.950683 Z M237.206505,21.8328577 C237.222336,22.7677684 237.236767,23.9734153 237.249339,25.3968802 L240.981968,23.8403067 L237.206505,21.8328577 Z M237.245281,54.6014272 C237.2315,56.0652419 237.215672,57.276463 237.198349,58.1714789 L240.981968,56.1596933 L237.245281,54.6014272 Z" id="Designway-Logo" transform="translate(225.000000, 40.000000) scale(-1, 1) translate(-225.000000, -40.000000) "></path>
            </g>
        </g>
    </g>
</svg>