<?xml version="1.0" encoding="UTF-8"?>
<svg width="11px" height="16px" viewBox="0 0 11 16" version="1.1" xmlns="http://www.w3.org/2000/svg" xmlns:xlink="http://www.w3.org/1999/xlink">
    <!-- Generator: sketchtool 49.1 (51147) - http://www.bohemiancoding.com/sketch -->
    <title>81D02511-EC8C-4655-BC8A-D39752559C14</title>
    <desc>Created with sketchtool.</desc>
    <defs></defs>
    <g id="Prototyping-Area" stroke="none" stroke-width="1" fill="none" fill-rule="evenodd">
        <g id="Create-Event---Step-1" transform="translate(-421.000000, -988.000000)" fill="#829399">
            <path d="M431,990.5 C431,994.125 429.031,997.063 426.5,997.063 C423.969,997.063 422,994.125 422,990.5 C422,989.981 421.972,989.484 422.052,989 L430.948,989 C431.028,989.484 431,989.981 431,990.5 L431,990.5 Z M421,988 L421,989.001 L421,990.5 C421,994.412 423.197,997.621 426,997.966 L426,1003.001 L424,1003.001 C423.724,1003.001 423.5,1003.225 423.5,1003.5 C423.5,1003.776 423.724,1004 424,1004 L426,1004 L427,1004 L429,1004 C429.276,1004 429.5,1003.776 429.5,1003.5 C429.5,1003.225 429.276,1003.001 429,1003.001 L427,1003.001 L427,997.966 C429.803,997.621 432,994.412 432,990.5 L432,989 L432,988 L421,988 Z" id="Fill-1020"></path>
        </g>
    </g>
</svg>