<?xml version="1.0" encoding="UTF-8"?>
<svg width="11px" height="16px" viewBox="0 0 11 16" version="1.1" xmlns="http://www.w3.org/2000/svg" xmlns:xlink="http://www.w3.org/1999/xlink">
    <!-- Generator: sketchtool 49.1 (51147) - http://www.bohemiancoding.com/sketch -->
    <title>A95F43AC-6B1B-4961-8B9B-DAA79E0753BB</title>
    <desc>Created with sketchtool.</desc>
    <defs></defs>
    <g id="Prototyping-Area" stroke="none" stroke-width="1" fill="none" fill-rule="evenodd">
        <g id="Create-Event---Step-1" transform="translate(-216.000000, -988.000000)" fill="#829399">
            <path d="M224,996.001 L224,989.653 C224.52,990.445 225.122,991.484 225.488,992.533 C225.942,993.833 226.055,995.14 226.071,996.001 L224,996.001 Z M226.302,991.867 C225.669,990.056 224.263,988.367 224,988.062 L224,988 L223,988 L223,988.266 L222.998,988.266 L223,988.27 L223,996.001 L223,997 L223,1004 L224,1004 L224,997 L227,997 L227,996.735 L227.002,996.734 C227.002,996.734 227.118,994.203 226.302,991.867 L226.302,991.867 Z M220,988.5 L220,991.5 C220,992.431 219.861,993.207 219,993.43 L219,988 L218,988.002 L218,993.501 C217.139,993.278 217,992.431 217,991.5 L217,988.5 L217,988.002 L216,988.002 L216,988.5 L216,991.5 C216,992.986 216.582,994.211 218,994.45 L218,1004 L219,1004 L219,994.45 C220.417,994.211 221,992.986 221,991.5 L221,988.5 L221,988.002 L220,988.002 L220,988.5 Z" id="Fill-1072"></path>
        </g>
    </g>
</svg>