<?xml version="1.0" encoding="UTF-8"?>
<svg width="10px" height="16px" viewBox="0 0 10 16" version="1.1" xmlns="http://www.w3.org/2000/svg" xmlns:xlink="http://www.w3.org/1999/xlink">
    <!-- Generator: sketchtool 49.1 (51147) - http://www.bohemiancoding.com/sketch -->
    <title>320AB7A1-1776-4A81-9243-44FAFE7F3BFD</title>
    <desc>Created with sketchtool.</desc>
    <defs></defs>
    <g id="Prototyping-Area" stroke="none" stroke-width="1" fill="none" fill-rule="evenodd">
        <g id="Create-Event---Step-1" transform="translate(-421.000000, -1038.000000)" fill="#FFFFFF">
            <path d="M429.5,1043 L422.5,1043 C422.224,1043 422,1042.776 422,1042.5 C422,1042.224 422.224,1042 422.5,1042 L429.5,1042 C429.776,1042 430,1042.224 430,1042.5 C430,1042.776 429.776,1043 429.5,1043 L429.5,1043 Z M426,1046 C424.606,1046 423.413,1045.179 422.85,1044 L429.15,1044 C428.587,1045.179 427.394,1046 426,1046 L426,1046 Z M427,1052.5 C427,1052.776 426.776,1053 426.5,1053 L425.5,1053 C425.224,1053 425,1052.776 425,1052.5 L424.086,1046.558 C424.668,1046.834 425.312,1047 426,1047 C426.687,1047 427.331,1046.834 427.914,1046.558 L427,1052.5 Z M426,1039 C427.394,1039 428.587,1039.821 429.15,1041 L422.85,1041 C423.413,1039.821 424.606,1039 426,1039 L426,1039 Z M430.239,1041.048 C429.633,1039.28 427.975,1038 426,1038 C424.025,1038 422.367,1039.28 421.761,1041.048 C421.327,1041.158 421,1041.533 421,1042 L421,1043 C421,1043.462 421.32,1043.834 421.745,1043.949 C422.016,1044.727 422.497,1045.406 423.116,1045.928 L424,1053 C424,1053.553 424.448,1054 425,1054 L427,1054 C427.552,1054 428,1053.553 428,1053 L428.884,1045.928 C429.503,1045.406 429.984,1044.727 430.255,1043.949 C430.68,1043.834 431,1043.462 431,1043 L431,1042 C431,1041.533 430.673,1041.158 430.239,1041.048 L430.239,1041.048 Z" id="Fill-863"></path>
        </g>
    </g>
</svg>