<?xml version="1.0" encoding="UTF-8"?>
<svg width="11px" height="14px" viewBox="0 0 11 14" version="1.1" xmlns="http://www.w3.org/2000/svg" xmlns:xlink="http://www.w3.org/1999/xlink">
    <!-- Generator: sketchtool 49.1 (51147) - http://www.bohemiancoding.com/sketch -->
    <title>703595F5-9672-47FC-82D3-D54EDBC827E8</title>
    <desc>Created with sketchtool.</desc>
    <defs></defs>
    <g id="Prototyping-Area" stroke="none" stroke-width="1" fill="none" fill-rule="evenodd">
        <g id="Event-Details" transform="translate(-527.000000, -583.000000)" fill="#2886FF">
            <path d="M532.25,590 C531.283125,590 530.5,589.216 530.5,588.25 C530.5,587.283125 531.283125,586.5 532.25,586.5 C533.216,586.5 534,587.283125 534,588.25 C534,589.216 533.216,590 532.25,590 M532.25,585.625 C530.800125,585.625 529.625,586.800125 529.625,588.25 C529.625,589.699 530.800125,590.875 532.25,590.875 C533.699875,590.875 534.875,589.699 534.875,588.25 C534.875,586.800125 533.699875,585.625 532.25,585.625 M527.875,588.25 C527.875,585.83325 529.834125,583.875 532.25,583.875 C534.665875,583.875 536.625,585.83325 536.625,588.25 C536.625,590.66675 532.25,595.6875 532.25,595.6875 C532.25,595.6875 527.875,590.66675 527.875,588.25 M532.25,583 C529.35025,583 527,585.35025 527,588.25 C527,591.14975 532.25,597 532.25,597 C532.25,597 537.5,591.14975 537.5,588.25 C537.5,585.35025 535.148875,583 532.25,583" id="Fill-67"></path>
        </g>
    </g>
</svg>