<?xml version="1.0" encoding="UTF-8"?>
<svg width="11px" height="14px" viewBox="0 0 11 14" version="1.1" xmlns="http://www.w3.org/2000/svg" xmlns:xlink="http://www.w3.org/1999/xlink">
    <!-- Generator: sketchtool 49.1 (51147) - http://www.bohemiancoding.com/sketch -->
    <title>2CE29601-C355-4B49-A292-FACD61CC4C56</title>
    <desc>Created with sketchtool.</desc>
    <defs></defs>
    <g id="Prototyping-Area" stroke="none" stroke-width="1" fill="none" fill-rule="evenodd">
        <g id="Venue" transform="translate(-860.000000, -416.000000)" fill="#829399">
            <g id="Group-6" transform="translate(860.000000, 380.000000)">
                <path d="M5.25,43 C4.283125,43 3.5,42.216 3.5,41.25 C3.5,40.283125 4.283125,39.5 5.25,39.5 C6.216,39.5 7,40.283125 7,41.25 C7,42.216 6.216,43 5.25,43 M5.25,38.625 C3.800125,38.625 2.625,39.800125 2.625,41.25 C2.625,42.699 3.800125,43.875 5.25,43.875 C6.699875,43.875 7.875,42.699 7.875,41.25 C7.875,39.800125 6.699875,38.625 5.25,38.625 M0.875,41.25 C0.875,38.83325 2.834125,36.875 5.25,36.875 C7.665875,36.875 9.625,38.83325 9.625,41.25 C9.625,43.66675 5.25,48.6875 5.25,48.6875 C5.25,48.6875 0.875,43.66675 0.875,41.25 M5.25,36 C2.35025,36 0,38.35025 0,41.25 C0,44.14975 5.25,50 5.25,50 C5.25,50 10.5,44.14975 10.5,41.25 C10.5,38.35025 8.148875,36 5.25,36" id="Fill-67"></path>
            </g>
        </g>
    </g>
</svg>