<?xml version="1.0" encoding="UTF-8"?>
<svg width="13px" height="16px" viewBox="0 0 13 16" version="1.1" xmlns="http://www.w3.org/2000/svg" xmlns:xlink="http://www.w3.org/1999/xlink">
    <!-- Generator: sketchtool 49.1 (51147) - http://www.bohemiancoding.com/sketch -->
    <title>8E864EC2-BD83-49E7-819C-B391EDE96D3B</title>
    <desc>Created with sketchtool.</desc>
    <defs></defs>
    <g id="Prototyping-Area" stroke="none" stroke-width="1" fill="none" fill-rule="evenodd">
        <g id="Create-Event---Step-1" transform="translate(-621.000000, -1038.000000)" fill="#829399">
            <path d="M633,1052.5 C633,1052.776 632.754,1053 632.449,1053 L627.5,1053 L622.55,1053 C622.246,1053 622,1052.776 622,1052.5 L622,1039.5 C622,1039.224 622.246,1039 622.55,1039 L632.449,1039 C632.754,1039 633,1039.224 633,1039.5 L633,1052.5 Z M632.916,1038 L622.083,1038 C621.484,1038 621,1038.448 621,1039 L621,1053 C621,1053.552 621.484,1054 622.083,1054 L632.916,1054 C633.515,1054 634,1053.552 634,1053 L634,1039 C634,1038.448 633.515,1038 632.916,1038 L632.916,1038 Z M627.5,1044 C626.672,1044 626,1043.329 626,1042.5 C626,1041.672 626.672,1041 627.5,1041 C628.328,1041 629,1041.672 629,1042.5 C629,1043.329 628.328,1044 627.5,1044 L627.5,1044 Z M627.5,1040 C626.119,1040 625,1041.119 625,1042.5 C625,1043.881 626.119,1045 627.5,1045 C628.881,1045 630,1043.881 630,1042.5 C630,1041.119 628.881,1040 627.5,1040 L627.5,1040 Z M627.5,1052 C626.119,1052 625,1050.881 625,1049.5 C625,1048.119 626.119,1047 627.5,1047 C628.881,1047 630,1048.119 630,1049.5 C630,1050.881 628.881,1052 627.5,1052 L627.5,1052 Z M631,1049.5 C631,1047.567 629.434,1046 627.5,1046 C625.566,1046 624,1047.567 624,1049.5 C624,1051.433 625.566,1053 627.5,1053 C629.434,1053 631,1051.433 631,1049.5 L631,1049.5 Z" id="Fill-860"></path>
        </g>
    </g>
</svg>