<?xml version="1.0" encoding="UTF-8"?>
<svg width="12px" height="12px" viewBox="0 0 12 12" version="1.1" xmlns="http://www.w3.org/2000/svg" xmlns:xlink="http://www.w3.org/1999/xlink">
    <!-- Generator: sketchtool 49.1 (51147) - http://www.bohemiancoding.com/sketch -->
    <title>3413675F-3D9A-4255-B64B-1FC90E9D0B22@3x</title>
    <desc>Created with sketchtool.</desc>
    <defs></defs>
    <g id="Prototyping-Area" stroke="none" stroke-width="1" fill="none" fill-rule="evenodd">
        <g id="Card-details-v2" transform="translate(-278.000000, -811.000000)" fill="#2886FF">
            <g id="Group-4" transform="translate(278.000000, 804.000000)">
                <g id="Group-3">
                    <path d="M6,18.2 C3.128,18.2 0.8,15.872 0.8,12.9992 C0.8,10.128 3.128,7.8 6,7.8 C8.872,7.8 11.2,10.128 11.2,12.9992 C11.2,15.872 8.872,18.2 6,18.2 M6,7 C2.6864,7 0,9.6856 0,12.9992 C0,16.3136 2.6864,19 6,19 C9.3136,19 12,16.3136 12,12.9992 C12,9.6856 9.3136,7 6,7 M8.3816,12.6088 L6.3904,12.6088 L6.3904,10.6176 C6.3904,10.388 6.2152,10.2016 6,10.2016 C5.784,10.2016 5.6096,10.388 5.6096,10.6176 L5.6096,12.6088 L3.6184,12.6088 C3.388,12.6088 3.2016,12.7832 3.2016,12.9992 C3.2016,13.216 3.388,13.3904 3.6184,13.3904 L5.6096,13.3904 L5.6096,15.3816 C5.6096,15.612 5.784,15.7984 6,15.7984 C6.2152,15.7984 6.3904,15.612 6.3904,15.3816 L6.3904,13.3904 L8.3816,13.3904 C8.612,13.3904 8.7984,13.216 8.7984,12.9992 C8.7984,12.7832 8.612,12.6088 8.3816,12.6088" id="Fill-364"></path>
                </g>
            </g>
        </g>
    </g>
</svg>