<?xml version="1.0" encoding="UTF-8"?>
<svg width="16px" height="16px" viewBox="0 0 16 16" version="1.1" xmlns="http://www.w3.org/2000/svg" xmlns:xlink="http://www.w3.org/1999/xlink">
    <!-- Generator: sketchtool 49.1 (51147) - http://www.bohemiancoding.com/sketch -->
    <title>9F75B604-A0C8-443A-A05D-70311EF64B13</title>
    <desc>Created with sketchtool.</desc>
    <defs></defs>
    <g id="Prototyping-Area" stroke="none" stroke-width="1" fill="none" fill-rule="evenodd">
        <g id="Order-Management" transform="translate(-956.000000, -284.000000)" fill="#829399">
            <path d="M962.5,296 C959.462,296 957,293.538 957,290.5 C957,287.462 959.462,285 962.5,285 C965.538,285 968,287.462 968,290.5 C968,293.538 965.538,296 962.5,296 M971.857,299.185 L967.416,294.743 C968.401,293.604 969,292.123 969,290.5 C969,286.909 966.09,284 962.5,284 C958.91,284 956,286.909 956,290.5 C956,294.09 958.91,297 962.5,297 C964.123,297 965.604,296.401 966.743,295.417 L971.184,299.857 C971.37,300.043 971.671,300.043 971.857,299.857 C972.043,299.671 972.043,299.37 971.857,299.185" id="Fill-350"></path>
        </g>
    </g>
</svg>