<?xml version="1.0" encoding="UTF-8"?>
<svg width="14px" height="14px" viewBox="0 0 14 14" version="1.1" xmlns="http://www.w3.org/2000/svg" xmlns:xlink="http://www.w3.org/1999/xlink">
    <!-- Generator: sketchtool 49.1 (51147) - http://www.bohemiancoding.com/sketch -->
    <title>09316E47-30E0-4A9F-A7E2-7AD408852E15</title>
    <desc>Created with sketchtool.</desc>
    <defs></defs>
    <g id="Prototyping-Area" stroke="none" stroke-width="1" fill="none" fill-rule="evenodd">
        <g id="Venue" transform="translate(-860.000000, -315.000000)" fill="#829399">
            <g id="Group-5" transform="translate(860.000000, 247.000000)">
                <g id="Group-2" transform="translate(0.000000, 63.000000)">
                    <path d="M13.1648955,7.77269801 C12.8070777,8.01765885 10.803648,9.33694795 10.428333,9.57665963 C10.3898391,9.57665963 10.2892302,9.56353673 10.146628,9.48917362 C9.99352747,9.40868648 9.54997337,9.16110106 8.92882267,8.80853242 L8.44589987,8.53295148 L7.99009773,8.85140057 C7.65152685,9.08936253 6.91576947,9.65364733 5.79507362,10.7699689 C4.66912861,11.8906647 4.10396895,12.6220478 3.86688185,12.9579941 L3.54668304,13.4111717 L3.82313885,13.8923447 C4.09084605,14.3586452 4.41104486,14.92293 4.50815434,15.1057758 C4.58601689,15.2527523 4.59214092,15.3533612 4.59214092,15.3804819 C4.59214092,15.3848562 4.59214092,15.3892305 4.59126606,15.3927299 C4.38042476,15.7260516 3.02176695,17.7653506 2.77418153,18.1249181 C2.73918712,18.1310422 2.66307429,18.1249181 2.56771453,18.0593036 C1.79696274,17.5055172 0.992966268,16.7198927 0.878359588,16.4110671 C0.955347281,14.7742038 2.39974139,12.4759462 4.95345816,9.93272771 C7.50804979,7.39038412 9.81155656,5.95036432 11.4501696,5.87512635 C11.760745,5.98535873 12.555118,6.78585576 13.1062799,7.54610923 C13.1447737,7.60297514 13.1675201,7.67296395 13.1675201,7.73682874 C13.1675201,7.75170136 13.1666452,7.76307455 13.1648955,7.77269801 M13.7982942,7.04831381 C13.7834216,7.02731716 12.3154063,4.97314554 11.4659171,5.0002662 C9.07667403,5.07637903 6.26837296,7.38950926 4.33405717,9.31595131 C2.39886652,11.2423934 0.076987693,14.0384464 0,16.4285643 L0,16.4478112 C0,17.2841775 2.03667442,18.7548174 2.05679621,18.7688152 C2.61058268,19.1555034 3.21948534,19.013776 3.46619591,18.6620823 C3.61754671,18.4486164 5.17829721,16.1101152 5.3541441,15.8240359 C5.4311318,15.6989309 5.46875078,15.5475801 5.46875078,15.3804819 C5.46875078,15.167016 5.40576085,14.9316786 5.28415529,14.6998407 C5.16517431,14.4741267 4.77586155,13.7926107 4.58426717,13.459289 C4.79160903,13.1662108 5.32177428,12.4759462 6.41534946,11.3876201 C7.49930119,10.306293 8.19831444,9.77262831 8.49489203,9.56616131 C8.82908861,9.75688082 9.51410411,10.143569 9.73894316,10.2616751 C10.1632503,10.4847645 10.5875575,10.5101354 10.8736368,10.3290394 C11.1430937,10.1593165 13.4728463,8.60993917 13.6950608,8.44983976 C13.9041523,8.30023868 14.0170093,8.02990689 14.0170093,7.73682874 C14.0170093,7.50586566 13.9470205,7.26090482 13.7982942,7.04831381" id="Fill-559" transform="translate(7.008505, 12.000000) scale(1, -1) translate(-7.008505, -12.000000) "></path>
                </g>
            </g>
        </g>
    </g>
</svg>