<?xml version="1.0" encoding="UTF-8"?>
<svg width="14px" height="14px" viewBox="0 0 14 14" version="1.1" xmlns="http://www.w3.org/2000/svg" xmlns:xlink="http://www.w3.org/1999/xlink">
    <!-- Generator: sketchtool 49.1 (51147) - http://www.bohemiancoding.com/sketch -->
    <title>DD7B4DF9-B360-4D51-9F94-EEAAE6CBECB1</title>
    <desc>Created with sketchtool.</desc>
    <defs></defs>
    <g id="Prototyping-Area" stroke="none" stroke-width="1" fill="none" fill-rule="evenodd">
        <g id="Event-Details" transform="translate(-195.000000, -583.000000)" fill="#2886FF">
            <path d="M202,596.125 C198.61725,596.125 195.875,593.383625 195.875,590 C195.875,586.618125 198.61725,583.875 202,583.875 C205.38275,583.875 208.125,586.618125 208.125,590 C208.125,593.383625 205.38275,596.125 202,596.125 M202,583 C198.133375,583 195,586.13425 195,590 C195,593.866625 198.133375,597 202,597 C205.86575,597 209,593.866625 209,590 C209,586.13425 205.86575,583 202,583 M202,590.875 C201.517,590.875 201.125,590.483875 201.125,590 C201.125,589.517 201.517,589.125 202,589.125 C202.483,589.125 202.875,589.517 202.875,590 C202.875,590.483875 202.483,590.875 202,590.875 M205.9375,590 L203.75,590 C203.75,589.034 202.966,588.25 202,588.25 L202,585.1875 C202,584.946875 201.804,584.75 201.5625,584.75 C201.321,584.75 201.125,584.946875 201.125,585.1875 L201.125,588.492375 C200.604375,588.796 200.25,589.35425 200.25,590 C200.25,590.966875 201.033125,591.75 202,591.75 C202.64575,591.75 203.204,591.3965 203.507625,590.875 L205.9375,590.875 C206.179,590.875 206.375,590.679875 206.375,590.4375 C206.375,590.196875 206.179,590 205.9375,590" id="Time---Icon"></path>
        </g>
    </g>
</svg>